<svg width="23" height="23" viewBox="0 0 23 23" fill="none" xmlns="http://www.w3.org/2000/svg">
<rect x="3" y="4" width="3" height="15" rx="1.5" fill="#D9D9D9"/>
<rect x="18" y="16" width="3" height="15" rx="1.5" transform="rotate(90 18 16)" fill="#D9D9D9"/>
<path d="M9.85505 9.29137L4.01697 15.1295C3.62645 15.52 3.62644 16.1531 4.01697 16.5437L5.61172 18.1384C6.00224 18.5289 6.63541 18.5289 7.02593 18.1384L12.864 12.3003C13.2545 11.9098 13.8877 11.9098 14.2782 12.3003L15.2782 13.3003C15.8927 13.9148 16.9447 13.5069 16.9842 12.6387L17.2911 5.90876C17.3179 5.32115 16.8342 4.83745 16.2466 4.86425L9.51667 5.17114C8.64847 5.21073 8.24057 6.26267 8.85511 6.87721L9.85506 7.87715C10.2456 8.26768 10.2456 8.90084 9.85505 9.29137Z" fill="#D9D9D9"/>
</svg>
